<mxfile host="app.diagrams.net" modified="2023-05-14T11:58:15.169Z" agent="Mozilla/5.0 (Windows NT 10.0; Win64; x64) AppleWebKit/537.36 (KHTML, like Gecko) Chrome/113.0.0.0 Safari/537.36" etag="xmmtQh-V12ummasuUrZn" version="21.3.0" type="device">
  <diagram name="Page-1" id="cb9FK4Iv0R1KGRzvZyDY">
    <mxGraphModel dx="-72" dy="-1773" grid="1" gridSize="10" guides="1" tooltips="1" connect="1" arrows="1" fold="1" page="1" pageScale="1" pageWidth="850" pageHeight="1100" math="0" shadow="0">
      <root>
        <mxCell id="0" />
        <mxCell id="1" parent="0" />
        <mxCell id="hc5A7WV2UZEteLQlOAEt-1" value="supplier_id" style="rounded=0;whiteSpace=wrap;html=1;fontStyle=5;fontFamily=Courier New;" parent="1" vertex="1">
          <mxGeometry x="950" y="2810" width="120" height="60" as="geometry" />
        </mxCell>
        <mxCell id="hc5A7WV2UZEteLQlOAEt-2" value="book_ISBN" style="rounded=0;whiteSpace=wrap;html=1;fontStyle=5;fontFamily=Courier New;" parent="1" vertex="1">
          <mxGeometry x="1070" y="2810" width="120" height="60" as="geometry" />
        </mxCell>
        <mxCell id="cI-SokR_Wzq4BYCI1Z06-1" value="supplier_id" style="rounded=0;whiteSpace=wrap;html=1;fontStyle=5;fontFamily=Courier New;" vertex="1" parent="1">
          <mxGeometry x="950" y="2810" width="120" height="60" as="geometry" />
        </mxCell>
        <mxCell id="cI-SokR_Wzq4BYCI1Z06-2" value="track_id" style="rounded=0;whiteSpace=wrap;html=1;fontStyle=5;fontFamily=Courier New;" vertex="1" parent="1">
          <mxGeometry x="1070" y="2810" width="120" height="60" as="geometry" />
        </mxCell>
      </root>
    </mxGraphModel>
  </diagram>
</mxfile>
